<?xml version="1.0" encoding="UTF-8"?>
<svg xmlns="http://www.w3.org/2000/svg" xmlns:xlink="http://www.w3.org/1999/xlink" width="300pt" height="372pt" viewBox="0 0 300 372" version="1.1">
<defs>
<clipPath id="clip0">
  <rect width="300" height="372"/>
</clipPath>
</defs>
<g id="surface0" clip-path="url(#clip0)">
<path style="fill: none; stroke-width: 0.1; stroke-linecap: butt; stroke-linejoin: miter; stroke: rgb(99.215692%,99.607849%,99.607849%); opacity: 1;stroke-miterlimit: 10;" d="M 0 0 L 300 0 L 300 372 L 0 372 L 0 0 Z M 0 0 " transform="matrix(1,0,0,1,0,0)"/>
<path style="stroke: none; fill-rule: nonzero; fill: rgb(99.215692%,99.607849%,99.607849%); opacity: 1;" d="M 0 0 L 300 0 L 300 372 L 0 372 L 0 0 Z M 0 0 "/>
<path style="fill: none; stroke-width: 0.1; stroke-linecap: butt; stroke-linejoin: miter; stroke: rgb(1.568628%,99.607849%,84.705889%); opacity: 1;stroke-miterlimit: 10;" d="M 22.825058 16.075455 C 24.866425 16.333298 27.026215 16.123856 28.962555 16.930695 C 32.094193 20.46814 34.199524 25.060211 38.376709 27.564224 C 45.411575 31.562164 46.97435 41.049652 54.621933 44.38884 C 52.636993 37.606766 49.309113 30.672302 51.4104 23.473755 C 52.737473 23.363647 54.06514 23.252838 55.392838 23.134155 C 55.955826 30.882462 63.419708 34.899307 66.703491 41.310623 C 68.235596 44.330307 71.041626 46.318649 73.544449 48.471069 C 76.468903 51.077225 81.053772 51.224579 83.40744 54.54126 C 86.631332 59.055115 89.420258 63.869797 92.753098 68.30957 C 95.876022 72.844376 101.086166 75.848648 102.742126 81.361877 C 106.893036 89.276855 105.600388 98.612976 103.152115 106.837067 C 102.687714 111.061279 99.496567 114.02977 97.130661 117.283524 C 99.326385 122.418152 103.421936 126.280594 108.420029 128.66095 C 109.568619 127.083572 110.737518 125.521774 111.91655 123.967789 C 109.720718 123.04599 107.522934 122.129105 105.285782 121.3172 C 105.273972 120.813019 105.250351 119.804642 105.238541 119.300446 C 110.464233 116.94928 113.736206 112.029755 115.765884 106.866928 C 115.575089 105.416565 114.836685 104.123138 114.307281 102.783752 C 112.710434 99.738388 113.42601 96.207016 113.316086 92.921249 C 115.151367 93.559326 116.974167 94.235657 118.813812 94.868271 C 120.972076 92.508026 123.517563 90.145477 124.176819 86.874573 C 124.442963 84.182861 124.236389 81.470764 124.266388 78.772324 C 126.56456 80.163651 128.908463 81.497253 131.440292 82.426208 C 132.77002 80.027924 134.953583 76.964539 132.710159 74.373734 C 129.386612 70.691284 123.884048 70.369965 119.274628 69.571564 C 116.202499 65.086929 113.683334 60.157898 113.028839 54.686783 C 115.750534 55.986618 118.249634 57.820877 121.206192 58.580399 C 129.436142 59.786713 133.055923 69.242096 141.335358 70.501434 C 141.557983 68.833878 141.745987 67.149872 141.628174 65.466858 C 139.626389 62.804596 137.39711 60.27623 134.996674 57.966202 C 131.051529 55.789429 126.059418 55.558304 122.70163 52.301071 C 120.457779 50.320267 120.318359 47.139847 119.309616 44.510757 C 116.794266 42.041199 112.982849 41.769501 109.69809 42.463425 C 108.589813 43.675903 107.923462 45.193512 107.177063 46.634995 C 106.645798 46.673645 105.583282 46.750946 105.052032 46.789597 C 104.147552 43.759491 102.786987 40.769333 102.71286 37.565659 C 105.112427 34.386658 109.2686 33.561584 112.402618 31.342255 C 117.010391 28.224182 122.180954 25.142212 127.988892 25.741409 C 133.467133 25.562714 137.800476 29.153824 142.315918 31.674561 C 148.49115 35.143433 153.845764 39.903519 160.406296 42.705811 C 164.562759 45.743301 169.771286 43.854645 174.474426 44.299286 C 172.472153 48.336212 169.616669 52.195358 170.045593 56.963013 C 172.246506 58.952057 175.397461 60.05336 176.906296 62.707306 C 175.946198 64.348114 174.45372 65.607666 173.53389 67.271332 C 173.377899 70.816544 174.608032 74.329346 174.078262 77.874359 C 173.267563 80.822372 171.217926 83.213608 169.290726 85.508423 C 171.125916 86.627625 172.928513 87.801025 174.689804 89.03801 C 172.513 90.782257 170.288254 92.463486 168.12265 94.220169 C 169.174057 97.463287 170.969376 100.410721 173.084259 103.067947 C 171.613312 104.965012 169.756927 106.566498 168.503189 108.623657 C 168.149261 110.521423 168.233383 112.463181 168.199844 114.385666 C 170.965652 114.647614 173.82901 114.491989 176.488968 115.427826 C 179.862274 118.593033 179.993973 123.455566 181.378662 127.583084 C 183.145706 127.652649 184.915451 127.705444 186.687241 127.757339 C 189.613663 124.068649 192.59642 120.40477 194.943329 116.305725 C 192.793213 113.313354 189.695496 110.702728 189.126877 106.865479 C 187.428543 99.409683 185.109863 91.391113 187.893799 83.900818 C 189.381348 80.278778 190.468567 76.230209 193.527679 73.557404 C 203.511719 63.171097 215.510025 54.92598 225.109375 44.13739 C 227.24118 41.762634 228.80658 38.959778 230.009216 36.016953 C 231.932007 31.445404 235.217941 27.657013 237.527557 23.295303 C 238.741257 23.291367 239.957947 23.286118 241.177658 23.279541 C 242.393845 30.30899 239.463608 36.822876 237.404465 43.356308 C 245.264572 40.115692 246.652405 30.332947 253.955643 26.462067 C 257.847107 23.981964 260.274902 19.88382 262.634216 16.042923 C 264.934494 16.123154 267.245743 16.141418 269.536133 16.453949 C 270.969177 24.32132 265.878311 31.326111 262.281494 37.881912 C 265.931091 33.185455 270.534698 29.270599 275.729706 26.372818 C 277.360229 39.734528 267.957001 50.313675 262.174942 61.345139 C 265.838791 58.529678 269.388107 55.077576 274.123199 54.255188 C 276.618134 53.800323 278.602325 56.671219 278.191711 58.962875 C 277.70018 64.200089 276.244537 69.332275 274.086319 74.122849 C 272.162384 78.492249 268.884979 82.08139 266.9711 86.458801 C 270.858902 84.852341 274.241302 82.293182 278.065872 80.556412 C 278.260681 85.039337 278.425674 89.534424 278.233307 94.020767 C 278.026291 98.260345 275.472961 101.836533 273.794174 105.597137 C 276.029175 105.456009 278.26738 105.327118 280.51033 105.254593 C 281.029114 108.105682 281.640213 111.013046 281.258636 113.924438 C 280.458786 117.922729 277.649384 121.079498 274.866104 123.887085 C 271.836365 127.111313 267.496048 128.470688 263.815048 130.760223 C 265.58197 133.068436 266.973343 135.86084 269.67395 137.244827 C 273.343872 139.275116 276.77652 141.689301 280.368698 143.852249 C 278.80928 147.248047 277.215302 150.865219 274.192093 153.226212 C 270.94249 155.67627 266.730652 155.926483 262.927246 156.933685 C 265.90271 163.801605 275.05896 166.090469 276.293167 173.919495 C 274.078064 183.301102 262.150711 187.030701 253.993378 183.137726 C 256.337006 186.612946 258.417526 190.264359 259.915634 194.190948 C 261.682816 198.674591 265.455353 202.393997 265.656967 207.428726 C 266.174911 209.775314 265.055954 211.929596 264.004196 213.938721 C 258.265915 211.845657 251.806717 212.101532 246.653381 208.455627 C 241.373734 206.708679 238.037415 202.312653 234.440353 198.386185 C 235.478683 203.214874 237.244095 207.944031 237.311447 212.935776 C 237.399857 216.560638 237.278763 220.187744 237.145218 223.812576 C 232.818039 224.045822 228.394714 223.624084 224.543732 221.483582 C 219.84996 218.857605 214.202377 217.711349 210.449814 213.613922 C 207.694031 210.567581 204.830795 207.620728 201.848114 204.798401 C 201.798676 210.830307 202.82048 216.811935 202.751648 222.846954 C 200.378021 222.610443 197.583145 223.18277 195.772659 221.243835 C 192.935776 218.755936 189.656006 216.740356 187.235519 213.81012 C 184.259949 210.465118 182.055527 206.495468 178.746872 203.439926 C 178.260483 205.815186 177.803024 208.197525 177.339569 210.581116 C 175.065567 209.464905 172.847031 208.2435 170.706299 206.894196 C 169.278793 209.640396 167.732956 212.322617 166.245102 215.037277 C 169.035202 218.775909 171.293533 223.02153 175.135223 225.838272 C 178.501678 229.22316 183.455215 229.980301 187.217621 232.788055 C 190.976334 235.749756 195.928528 236.932449 200.640808 236.601608 C 203.665298 235.342545 206.420639 233.447601 209.573883 232.468735 C 211.542877 232.259567 213.527573 232.263184 215.507416 232.164581 C 216.413498 235.186646 217.13501 238.263916 217.634476 241.38298 C 220.488037 242.439926 223.33905 244.47998 226.531235 243.605972 C 233.687836 241.783844 240.368317 238.47229 247.497559 236.554932 C 251.987106 235.63765 256.548645 235.10498 261.085495 234.460297 C 262.178375 236.321686 263.382965 238.146545 264.127579 240.191315 C 264.081604 242.378922 263.605148 244.529755 263.261292 246.686874 C 260.681625 246.696365 257.634659 245.49057 255.47963 247.463837 C 254.272369 248.330185 253.145264 249.299042 251.993988 250.235397 C 255.39505 251.111786 259.817841 250.682495 262.048187 253.926208 C 264.411148 256.949524 267.557907 259.962555 267.712784 264.048248 C 267.340332 266.878738 266.071518 269.498886 265.376724 272.258667 C 263.416901 272.219971 261.461578 272.105347 259.516754 271.906235 C 259.108688 269.462311 258.704971 267.021561 258.353653 264.573868 C 257.800827 264.487503 256.69519 264.314774 256.142365 264.228409 C 255.315918 266.079605 254.510864 267.940872 253.693115 269.798523 C 250.875656 269.676483 247.998169 269.957535 245.233109 269.319427 C 242.645493 266.310135 239.851425 263.41716 235.801849 262.535645 C 236.615082 264.655029 238.367615 266.835754 237.301788 269.193863 C 236.024872 273.011047 235.732635 277.04686 235.54567 281.042328 C 233.605972 280.720581 231.564026 280.75386 229.724945 280.011581 C 227.770645 278.378784 227.303391 275.222015 224.741852 274.367996 C 222.284424 273.214676 219.164551 272.468338 217.85054 269.847153 C 217.698944 266.841003 218.344284 263.871231 218.658188 260.896759 C 213.072159 263.453156 207.305969 266.23584 201.057632 266.458298 C 198.149689 266.711914 196.383896 264.18187 194.484756 262.454254 C 193.259735 261.163483 191.338562 261.333801 189.743988 260.939178 C 189.259247 263.863953 188.604736 266.761703 187.764297 269.608078 C 186.293777 269.641586 184.825638 269.662888 183.359573 269.670135 C 182.291626 266.135635 180.740646 262.121155 182.470505 258.548737 C 184.231613 255.614365 186.951904 253.456268 189.296387 251.019379 C 181.862839 248.672424 175.757523 243.606339 168.252258 241.423447 C 168.359009 244.350113 167.781174 247.428558 168.784042 250.252106 C 171.961075 257.45459 175.409546 264.711838 176.494812 272.591217 C 178.6996 282.332413 181.537033 292.503967 179.508957 302.514084 C 177.570358 308.005249 178.09465 313.906754 178.894165 319.560928 C 176.869492 319.928146 174.850281 320.315765 172.836014 320.725693 C 171.679504 322.908035 171.235428 325.727341 169.113922 327.227448 C 166.412674 328.160477 163.50209 327.736511 160.710358 327.656601 C 159.042389 330.03299 157.933624 332.845108 155.846863 334.898987 C 152.653229 336.357391 148.807419 336.779434 145.442627 335.686951 C 142.346008 334.625198 141.773148 331.163101 140.464752 328.59761 C 131.84111 327.570923 122.753326 324.729523 116.441299 318.522263 C 114.53978 312.622391 117.396225 306.515884 116.746628 300.480545 C 115.216782 300.580383 113.689453 300.699234 112.164261 300.833115 C 112.260315 293.58931 112.0177 286.192398 114.169464 279.185669 C 115.602692 274.41394 115.78717 269.338333 117.653152 264.691925 C 119.083725 260.856873 120.438477 256.982513 122.343979 253.350662 C 124.341278 249.637375 124.075516 245.296082 124.574188 241.231506 C 123.285126 240.630203 122.008072 240.008682 120.745148 239.364655 C 115.172409 242.727509 110.134399 247.417206 103.533554 248.63147 C 99.975677 249.971832 96.160095 249.592697 92.454147 249.976974 C 96.214874 251.799667 100.420715 252.242798 104.312958 253.66925 C 107.100739 256.083771 110.618652 258.876144 110.306229 262.991165 C 110.284576 265.638 109.982697 269.106155 107.571899 270.660355 C 102.433578 271.873184 103.1194 264.887253 102.2621 261.718689 C 97.40744 261.41925 95.723297 267.441116 91.03421 267.330902 C 84.668411 267.337936 78.645554 264.577972 73.209671 261.483032 C 73.700073 265.030869 75.176666 268.962662 73.324615 272.344299 C 71.058304 274.378098 67.919586 274.711334 65.157364 275.693512 C 63.568695 277.318848 62.783493 279.559555 61.158112 281.158188 C 59.644897 281.732056 58.036255 281.982834 56.463501 282.337601 C 56.25174 278.247559 55.967911 274.120895 54.70105 270.200607 C 53.598846 267.758392 55.631744 265.623947 56.514359 263.48877 C 52.895554 264.421829 49.448898 266.072342 46.921936 268.89447 C 44.821579 271.418259 41.304977 270.577377 38.436035 270.806549 C 37.536453 268.9711 36.663391 267.126617 35.779327 265.288513 C 35.243607 265.36705 34.17218 265.524139 33.636475 265.602676 C 33.246902 268.255722 32.786407 270.897064 32.353668 273.547714 C 30.463303 273.330246 28.563004 273.104935 26.731491 272.573196 C 25.487762 269.545822 23.401566 266.189545 24.750015 262.846451 C 25.883347 259.591492 28.213577 256.968323 30.447174 254.421478 C 32.750504 251.432526 36.932205 252.022644 40.237 251.361542 C 38.677933 250.055023 37.206451 248.622894 35.472824 247.547775 C 33.177582 247.131851 30.840668 247.584732 28.53183 247.630508 C 27.973969 243.657394 28.001785 239.544434 30.032837 235.962158 C 42.679199 234.036316 53.689102 241.686371 65.521118 244.529373 C 68.656204 245.444077 71.474152 243.29425 74.308044 242.321198 C 74.750397 239.314941 75.075897 236.16951 76.723282 233.534286 C 83.80368 232.317184 90.259186 237.812851 97.431641 236.338104 C 102.797546 236.254486 106.564392 232.021744 111.38121 230.331863 C 115.104416 229.074051 117.530548 225.805237 120.343735 223.254944 C 116.264694 219.067459 112.321136 214.733994 109.14241 209.808716 C 104.842697 214.930237 99.994934 219.614227 94.54715 223.489853 C 92.781967 223.787354 90.98526 223.780319 89.204498 223.885468 C 89.327454 217.906921 90.00087 211.947205 89.740952 205.962296 C 84.835144 210.63562 80.990952 216.884277 74.381439 219.344101 C 68.306595 222.044632 62.304504 225.352798 55.473618 225.518433 C 54.664017 220.719833 54.358124 215.821274 54.863281 210.97464 C 55.411011 207.016388 56.951248 203.290253 57.728745 199.381165 C 55.208664 201.635422 53.255936 204.458054 50.646545 206.61113 C 48.356781 208.131989 45.714905 209.023758 43.370773 210.462753 C 38.887924 213.263535 33.424057 213.18248 28.5242 214.81929 C 27.731644 214.066711 26.935959 213.320511 26.137131 212.580688 C 26.358337 209.009918 26.310883 205.169357 28.319138 202.049438 C 32.162552 196.422348 33.75293 189.619019 37.947739 184.192413 C 32.288727 187.055145 25.690048 185.630692 20.516647 182.445602 C 17.456146 179.955536 15.062317 175.712082 16.636398 171.746277 C 19.843719 166.311218 26.379974 163.838364 29.115265 158.001831 C 24.491776 156.709564 18.904404 156.40979 15.793442 152.232437 C 14.223175 149.961914 12.027008 147.548294 12.311874 144.594772 C 17.599014 140.263931 25.042328 138.409821 28.194489 131.820541 C 21.810425 128.609009 15.049835 124.898422 11.931641 118.082108 C 9.8423 114.378494 10.958649 110.095779 11.619293 106.177917 C 13.81427 106.263214 16.006363 106.404205 18.19696 106.570007 C 16.670486 103.145767 14.170547 99.907272 14.216461 96.00177 C 13.980133 91.214661 14.284821 86.38858 15.637878 81.770248 C 18.469391 84.097763 21.421951 86.283203 24.981522 87.362762 C 22.008026 80.966339 17.045029 75.545258 15.40274 68.534637 C 14.499847 64.323318 12.181076 59.111816 15.624954 55.443665 C 21.443756 54.475967 25.550964 59.524536 29.837708 62.522354 C 26.582016 55.506607 21.37117 49.534317 18.682022 42.233047 C 17.11319 37.472061 15.08403 32.721359 15.153824 27.614914 C 19.963974 28.498154 23.174973 32.452744 27.12236 34.978607 C 25.511444 31.153152 23.769592 27.376053 22.379105 23.463043 C 21.372528 21.047089 22.444016 18.501419 22.825058 16.075455 Z M 22.825058 16.075455 " transform="matrix(1,0,0,1,0,0)"/>
<path style="stroke: none; fill-rule: nonzero; fill: rgb(1.568628%,99.607849%,84.705889%); opacity: 1;" d="M 22.825058 16.075455 C 24.866425 16.333298 27.026215 16.123856 28.962555 16.930695 C 32.094193 20.46814 34.199524 25.060211 38.376709 27.564224 C 45.411575 31.562164 46.97435 41.049652 54.621933 44.38884 C 52.636993 37.606766 49.309113 30.672302 51.4104 23.473755 C 52.737473 23.363647 54.06514 23.252838 55.392838 23.134155 C 55.955826 30.882462 63.419708 34.899307 66.703491 41.310623 C 68.235596 44.330307 71.041626 46.318649 73.544449 48.471069 C 76.468903 51.077225 81.053772 51.224579 83.40744 54.54126 C 86.631332 59.055115 89.420258 63.869797 92.753098 68.30957 C 95.876022 72.844376 101.086166 75.848648 102.742126 81.361877 C 106.893036 89.276855 105.600388 98.612976 103.152115 106.837067 C 102.687714 111.061279 99.496567 114.02977 97.130661 117.283524 C 99.326385 122.418152 103.421936 126.280594 108.420029 128.66095 C 109.568619 127.083572 110.737518 125.521774 111.91655 123.967789 C 109.720718 123.04599 107.522934 122.129105 105.285782 121.3172 C 105.273972 120.813019 105.250351 119.804642 105.238541 119.300446 C 110.464233 116.94928 113.736206 112.029755 115.765884 106.866928 C 115.575089 105.416565 114.836685 104.123138 114.307281 102.783752 C 112.710434 99.738388 113.42601 96.207016 113.316086 92.921249 C 115.151367 93.559326 116.974167 94.235657 118.813812 94.868271 C 120.972076 92.508026 123.517563 90.145477 124.176819 86.874573 C 124.442963 84.182861 124.236389 81.470764 124.266388 78.772324 C 126.56456 80.163651 128.908463 81.497253 131.440292 82.426208 C 132.77002 80.027924 134.953583 76.964539 132.710159 74.373734 C 129.386612 70.691284 123.884048 70.369965 119.274628 69.571564 C 116.202499 65.086929 113.683334 60.157898 113.028839 54.686783 C 115.750534 55.986618 118.249634 57.820877 121.206192 58.580399 C 129.436142 59.786713 133.055923 69.242096 141.335358 70.501434 C 141.557983 68.833878 141.745987 67.149872 141.628174 65.466858 C 139.626389 62.804596 137.39711 60.27623 134.996674 57.966202 C 131.051529 55.789429 126.059418 55.558304 122.70163 52.301071 C 120.457779 50.320267 120.318359 47.139847 119.309616 44.510757 C 116.794266 42.041199 112.982849 41.769501 109.69809 42.463425 C 108.589813 43.675903 107.923462 45.193512 107.177063 46.634995 C 106.645798 46.673645 105.583282 46.750946 105.052032 46.789597 C 104.147552 43.759491 102.786987 40.769333 102.71286 37.565659 C 105.112427 34.386658 109.2686 33.561584 112.402618 31.342255 C 117.010391 28.224182 122.180954 25.142212 127.988892 25.741409 C 133.467133 25.562714 137.800476 29.153824 142.315918 31.674561 C 148.49115 35.143433 153.845764 39.903519 160.406296 42.705811 C 164.562759 45.743301 169.771286 43.854645 174.474426 44.299286 C 172.472153 48.336212 169.616669 52.195358 170.045593 56.963013 C 172.246506 58.952057 175.397461 60.05336 176.906296 62.707306 C 175.946198 64.348114 174.45372 65.607666 173.53389 67.271332 C 173.377899 70.816544 174.608032 74.329346 174.078262 77.874359 C 173.267563 80.822372 171.217926 83.213608 169.290726 85.508423 C 171.125916 86.627625 172.928513 87.801025 174.689804 89.03801 C 172.513 90.782257 170.288254 92.463486 168.12265 94.220169 C 169.174057 97.463287 170.969376 100.410721 173.084259 103.067947 C 171.613312 104.965012 169.756927 106.566498 168.503189 108.623657 C 168.149261 110.521423 168.233383 112.463181 168.199844 114.385666 C 170.965652 114.647614 173.82901 114.491989 176.488968 115.427826 C 179.862274 118.593033 179.993973 123.455566 181.378662 127.583084 C 183.145706 127.652649 184.915451 127.705444 186.687241 127.757339 C 189.613663 124.068649 192.59642 120.40477 194.943329 116.305725 C 192.793213 113.313354 189.695496 110.702728 189.126877 106.865479 C 187.428543 99.409683 185.109863 91.391113 187.893799 83.900818 C 189.381348 80.278778 190.468567 76.230209 193.527679 73.557404 C 203.511719 63.171097 215.510025 54.92598 225.109375 44.13739 C 227.24118 41.762634 228.80658 38.959778 230.009216 36.016953 C 231.932007 31.445404 235.217941 27.657013 237.527557 23.295303 C 238.741257 23.291367 239.957947 23.286118 241.177658 23.279541 C 242.393845 30.30899 239.463608 36.822876 237.404465 43.356308 C 245.264572 40.115692 246.652405 30.332947 253.955643 26.462067 C 257.847107 23.981964 260.274902 19.88382 262.634216 16.042923 C 264.934494 16.123154 267.245743 16.141418 269.536133 16.453949 C 270.969177 24.32132 265.878311 31.326111 262.281494 37.881912 C 265.931091 33.185455 270.534698 29.270599 275.729706 26.372818 C 277.360229 39.734528 267.957001 50.313675 262.174942 61.345139 C 265.838791 58.529678 269.388107 55.077576 274.123199 54.255188 C 276.618134 53.800323 278.602325 56.671219 278.191711 58.962875 C 277.70018 64.200089 276.244537 69.332275 274.086319 74.122849 C 272.162384 78.492249 268.884979 82.08139 266.9711 86.458801 C 270.858902 84.852341 274.241302 82.293182 278.065872 80.556412 C 278.260681 85.039337 278.425674 89.534424 278.233307 94.020767 C 278.026291 98.260345 275.472961 101.836533 273.794174 105.597137 C 276.029175 105.456009 278.26738 105.327118 280.51033 105.254593 C 281.029114 108.105682 281.640213 111.013046 281.258636 113.924438 C 280.458786 117.922729 277.649384 121.079498 274.866104 123.887085 C 271.836365 127.111313 267.496048 128.470688 263.815048 130.760223 C 265.58197 133.068436 266.973343 135.86084 269.67395 137.244827 C 273.343872 139.275116 276.77652 141.689301 280.368698 143.852249 C 278.80928 147.248047 277.215302 150.865219 274.192093 153.226212 C 270.94249 155.67627 266.730652 155.926483 262.927246 156.933685 C 265.90271 163.801605 275.05896 166.090469 276.293167 173.919495 C 274.078064 183.301102 262.150711 187.030701 253.993378 183.137726 C 256.337006 186.612946 258.417526 190.264359 259.915634 194.190948 C 261.682816 198.674591 265.455353 202.393997 265.656967 207.428726 C 266.174911 209.775314 265.055954 211.929596 264.004196 213.938721 C 258.265915 211.845657 251.806717 212.101532 246.653381 208.455627 C 241.373734 206.708679 238.037415 202.312653 234.440353 198.386185 C 235.478683 203.214874 237.244095 207.944031 237.311447 212.935776 C 237.399857 216.560638 237.278763 220.187744 237.145218 223.812576 C 232.818039 224.045822 228.394714 223.624084 224.543732 221.483582 C 219.84996 218.857605 214.202377 217.711349 210.449814 213.613922 C 207.694031 210.567581 204.830795 207.620728 201.848114 204.798401 C 201.798676 210.830307 202.82048 216.811935 202.751648 222.846954 C 200.378021 222.610443 197.583145 223.18277 195.772659 221.243835 C 192.935776 218.755936 189.656006 216.740356 187.235519 213.81012 C 184.259949 210.465118 182.055527 206.495468 178.746872 203.439926 C 178.260483 205.815186 177.803024 208.197525 177.339569 210.581116 C 175.065567 209.464905 172.847031 208.2435 170.706299 206.894196 C 169.278793 209.640396 167.732956 212.322617 166.245102 215.037277 C 169.035202 218.775909 171.293533 223.02153 175.135223 225.838272 C 178.501678 229.22316 183.455215 229.980301 187.217621 232.788055 C 190.976334 235.749756 195.928528 236.932449 200.640808 236.601608 C 203.665298 235.342545 206.420639 233.447601 209.573883 232.468735 C 211.542877 232.259567 213.527573 232.263184 215.507416 232.164581 C 216.413498 235.186646 217.13501 238.263916 217.634476 241.38298 C 220.488037 242.439926 223.33905 244.47998 226.531235 243.605972 C 233.687836 241.783844 240.368317 238.47229 247.497559 236.554932 C 251.987106 235.63765 256.548645 235.10498 261.085495 234.460297 C 262.178375 236.321686 263.382965 238.146545 264.127579 240.191315 C 264.081604 242.378922 263.605148 244.529755 263.261292 246.686874 C 260.681625 246.696365 257.634659 245.49057 255.47963 247.463837 C 254.272369 248.330185 253.145264 249.299042 251.993988 250.235397 C 255.39505 251.111786 259.817841 250.682495 262.048187 253.926208 C 264.411148 256.949524 267.557907 259.962555 267.712784 264.048248 C 267.340332 266.878738 266.071518 269.498886 265.376724 272.258667 C 263.416901 272.219971 261.461578 272.105347 259.516754 271.906235 C 259.108688 269.462311 258.704971 267.021561 258.353653 264.573868 C 257.800827 264.487503 256.69519 264.314774 256.142365 264.228409 C 255.315918 266.079605 254.510864 267.940872 253.693115 269.798523 C 250.875656 269.676483 247.998169 269.957535 245.233109 269.319427 C 242.645493 266.310135 239.851425 263.41716 235.801849 262.535645 C 236.615082 264.655029 238.367615 266.835754 237.301788 269.193863 C 236.024872 273.011047 235.732635 277.04686 235.54567 281.042328 C 233.605972 280.720581 231.564026 280.75386 229.724945 280.011581 C 227.770645 278.378784 227.303391 275.222015 224.741852 274.367996 C 222.284424 273.214676 219.164551 272.468338 217.85054 269.847153 C 217.698944 266.841003 218.344284 263.871231 218.658188 260.896759 C 213.072159 263.453156 207.305969 266.23584 201.057632 266.458298 C 198.149689 266.711914 196.383896 264.18187 194.484756 262.454254 C 193.259735 261.163483 191.338562 261.333801 189.743988 260.939178 C 189.259247 263.863953 188.604736 266.761703 187.764297 269.608078 C 186.293777 269.641586 184.825638 269.662888 183.359573 269.670135 C 182.291626 266.135635 180.740646 262.121155 182.470505 258.548737 C 184.231613 255.614365 186.951904 253.456268 189.296387 251.019379 C 181.862839 248.672424 175.757523 243.606339 168.252258 241.423447 C 168.359009 244.350113 167.781174 247.428558 168.784042 250.252106 C 171.961075 257.45459 175.409546 264.711838 176.494812 272.591217 C 178.6996 282.332413 181.537033 292.503967 179.508957 302.514084 C 177.570358 308.005249 178.09465 313.906754 178.894165 319.560928 C 176.869492 319.928146 174.850281 320.315765 172.836014 320.725693 C 171.679504 322.908035 171.235428 325.727341 169.113922 327.227448 C 166.412674 328.160477 163.50209 327.736511 160.710358 327.656601 C 159.042389 330.03299 157.933624 332.845108 155.846863 334.898987 C 152.653229 336.357391 148.807419 336.779434 145.442627 335.686951 C 142.346008 334.625198 141.773148 331.163101 140.464752 328.59761 C 131.84111 327.570923 122.753326 324.729523 116.441299 318.522263 C 114.53978 312.622391 117.396225 306.515884 116.746628 300.480545 C 115.216782 300.580383 113.689453 300.699234 112.164261 300.833115 C 112.260315 293.58931 112.0177 286.192398 114.169464 279.185669 C 115.602692 274.41394 115.78717 269.338333 117.653152 264.691925 C 119.083725 260.856873 120.438477 256.982513 122.343979 253.350662 C 124.341278 249.637375 124.075516 245.296082 124.574188 241.231506 C 123.285126 240.630203 122.008072 240.008682 120.745148 239.364655 C 115.172409 242.727509 110.134399 247.417206 103.533554 248.63147 C 99.975677 249.971832 96.160095 249.592697 92.454147 249.976974 C 96.214874 251.799667 100.420715 252.242798 104.312958 253.66925 C 107.100739 256.083771 110.618652 258.876144 110.306229 262.991165 C 110.284576 265.638 109.982697 269.106155 107.571899 270.660355 C 102.433578 271.873184 103.1194 264.887253 102.2621 261.718689 C 97.40744 261.41925 95.723297 267.441116 91.03421 267.330902 C 84.668411 267.337936 78.645554 264.577972 73.209671 261.483032 C 73.700073 265.030869 75.176666 268.962662 73.324615 272.344299 C 71.058304 274.378098 67.919586 274.711334 65.157364 275.693512 C 63.568695 277.318848 62.783493 279.559555 61.158112 281.158188 C 59.644897 281.732056 58.036255 281.982834 56.463501 282.337601 C 56.25174 278.247559 55.967911 274.120895 54.70105 270.200607 C 53.598846 267.758392 55.631744 265.623947 56.514359 263.48877 C 52.895554 264.421829 49.448898 266.072342 46.921936 268.89447 C 44.821579 271.418259 41.304977 270.577377 38.436035 270.806549 C 37.536453 268.9711 36.663391 267.126617 35.779327 265.288513 C 35.243607 265.36705 34.17218 265.524139 33.636475 265.602676 C 33.246902 268.255722 32.786407 270.897064 32.353668 273.547714 C 30.463303 273.330246 28.563004 273.104935 26.731491 272.573196 C 25.487762 269.545822 23.401566 266.189545 24.750015 262.846451 C 25.883347 259.591492 28.213577 256.968323 30.447174 254.421478 C 32.750504 251.432526 36.932205 252.022644 40.237 251.361542 C 38.677933 250.055023 37.206451 248.622894 35.472824 247.547775 C 33.177582 247.131851 30.840668 247.584732 28.53183 247.630508 C 27.973969 243.657394 28.001785 239.544434 30.032837 235.962158 C 42.679199 234.036316 53.689102 241.686371 65.521118 244.529373 C 68.656204 245.444077 71.474152 243.29425 74.308044 242.321198 C 74.750397 239.314941 75.075897 236.16951 76.723282 233.534286 C 83.80368 232.317184 90.259186 237.812851 97.431641 236.338104 C 102.797546 236.254486 106.564392 232.021744 111.38121 230.331863 C 115.104416 229.074051 117.530548 225.805237 120.343735 223.254944 C 116.264694 219.067459 112.321136 214.733994 109.14241 209.808716 C 104.842697 214.930237 99.994934 219.614227 94.54715 223.489853 C 92.781967 223.787354 90.98526 223.780319 89.204498 223.885468 C 89.327454 217.906921 90.00087 211.947205 89.740952 205.962296 C 84.835144 210.63562 80.990952 216.884277 74.381439 219.344101 C 68.306595 222.044632 62.304504 225.352798 55.473618 225.518433 C 54.664017 220.719833 54.358124 215.821274 54.863281 210.97464 C 55.411011 207.016388 56.951248 203.290253 57.728745 199.381165 C 55.208664 201.635422 53.255936 204.458054 50.646545 206.61113 C 48.356781 208.131989 45.714905 209.023758 43.370773 210.462753 C 38.887924 213.263535 33.424057 213.18248 28.5242 214.81929 C 27.731644 214.066711 26.935959 213.320511 26.137131 212.580688 C 26.358337 209.009918 26.310883 205.169357 28.319138 202.049438 C 32.162552 196.422348 33.75293 189.619019 37.947739 184.192413 C 32.288727 187.055145 25.690048 185.630692 20.516647 182.445602 C 17.456146 179.955536 15.062317 175.712082 16.636398 171.746277 C 19.843719 166.311218 26.379974 163.838364 29.115265 158.001831 C 24.491776 156.709564 18.904404 156.40979 15.793442 152.232437 C 14.223175 149.961914 12.027008 147.548294 12.311874 144.594772 C 17.599014 140.263931 25.042328 138.409821 28.194489 131.820541 C 21.810425 128.609009 15.049835 124.898422 11.931641 118.082108 C 9.8423 114.378494 10.958649 110.095779 11.619293 106.177917 C 13.81427 106.263214 16.006363 106.404205 18.19696 106.570007 C 16.670486 103.145767 14.170547 99.907272 14.216461 96.00177 C 13.980133 91.214661 14.284821 86.38858 15.637878 81.770248 C 18.469391 84.097763 21.421951 86.283203 24.981522 87.362762 C 22.008026 80.966339 17.045029 75.545258 15.40274 68.534637 C 14.499847 64.323318 12.181076 59.111816 15.624954 55.443665 C 21.443756 54.475967 25.550964 59.524536 29.837708 62.522354 C 26.582016 55.506607 21.37117 49.534317 18.682022 42.233047 C 17.11319 37.472061 15.08403 32.721359 15.153824 27.614914 C 19.963974 28.498154 23.174973 32.452744 27.12236 34.978607 C 25.511444 31.153152 23.769592 27.376053 22.379105 23.463043 C 21.372528 21.047089 22.444016 18.501419 22.825058 16.075455 Z M 22.825058 16.075455 "/>
</g>
</svg>
