<svg width="640" height="480" xmlns="http://www.w3.org/2000/svg">
 <metadata id="metadata11451">image/svg+xml</metadata>
 <g>
  <title>Layer 1</title>
  <g id="g11453">
   <g id="g11455">
    <path fill="#231f20" fill-rule="nonzero" id="path11457" d="m507.23132,239.80804c2.20331,-8.9292 3.35199,-17.85962 3.35199,-26.60785c0,-29.1445 -10.4082,-58.61612 -26.26105,-86.57544c-15.00983,14.77524 -35.86761,29.98764 -65.38812,45.8588c-5.60162,3.01276 -10.90411,6.06714 -15.91565,9.16315c-31.19159,-43.44534 -72.50879,-75.64566 -72.50879,-75.64566c0,0 -42.00476,32.75201 -73.24927,76.78473c-5.54382,-3.49307 -11.43945,-6.92368 -17.71777,-10.30222c-29.55115,-15.88156 -50.45123,-31.11627 -65.45758,-45.90341c-15.84955,27.96973 -26.2738,57.4592 -26.2738,86.62c0,8.63379 1.25836,17.5899 3.66278,26.66028c-28.81635,-4.90906 -51.54291,-7.92328 -69.47406,-11.58392c8.74677,75.87677 56.552,142.62799 197.62732,142.62799c12.87097,0 22.1701,0.07611 28.87585,0.19928c0.29095,0 0.57031,0.00983 0.8645,0.02032l0.15039,0c3.67932,0.07373 6.53058,0.16266 8.75201,0.25092c-53.013,-7.3457 -94.25165,-60.90643 -94.25165,-102.95367c0,-4.54822 0.36212,-9.12207 1.02014,-13.68011c57.5127,14.18323 82.98859,42.0564 93.98853,67.0614c-0.76855,-10.29614 -0.44458,-21.71893 1.7901,-33.78833c-16.15198,-3.22913 -28.22467,-16.17615 -28.22467,-31.66693c0,-11.78076 6.96033,-22.07214 17.37512,-27.76764c5.45288,-2.97693 11.84955,-4.6864 18.67761,-4.6864c7.18347,0 13.85944,1.88434 19.4776,5.12787c9.98016,5.77228 16.59827,15.84338 16.59827,27.32617c0,15.15442 -11.54871,27.87317 -27.16516,31.43512c2.26117,12.18268 2.58179,23.70905 1.81488,34.09912c11.14044,-25.40698 37.23785,-53.7832 96.59796,-67.77417c0.71899,4.77252 1.09747,9.54559 1.09747,14.3139c0,44.13147 -40.46924,95.11011 -92.96326,102.79858c1.37518,-0.03717 2.91077,-0.07379 4.63141,-0.11615l0,0.02496c0.23804,-0.00464 0.45782,-0.00464 0.70081,-0.01514c6.75867,-0.12604 16.2066,-0.20911 29.41644,-0.20911c141.09198,0 188.87524,-66.74603 197.62231,-142.64075c-17.87927,3.66077 -40.52875,6.66266 -69.24268,11.54431"/>
   </g>
  </g>
 </g>
</svg>