<?xml version="1.0" encoding="UTF-8" standalone="no"?>
<!-- Created with Inkscape (http://www.inkscape.org/) -->
<svg
   xmlns:svg="http://www.w3.org/2000/svg"
   xmlns="http://www.w3.org/2000/svg"
   version="1.0"
   width="649.4668"
   height="649.46777"
   viewBox="0 0 649.4668 649.46777"
   id="svg8382"
   xml:space="preserve"><defs
   id="defs8395" />
	
		<g
   id="Ebene_4">
			<circle
   cx="324.7334"
   cy="324.7334"
   r="324.7334"
   style="fill:#0000ff"
   id="circle8387" /> 
		</g>
		<g
   id="Ebene_2_1_">
			<path
   d="M 426.37012,553.10742 L 235.09717,553.10742 L 235.09717,525.49805 C 246.69043,525.49805 251.75391,525.49805 250.31934,525.49805 C 268.44336,525.49805 278.58643,519.22754 280.76318,506.68652 C 280.76318,497.74121 281.17529,484.07227 282,465.71484 C 284.45703,433.91016 285.69385,413.30664 285.69385,403.9082 C 285.69385,364.50488 283.91309,330.68848 280.31787,302.46484 C 278.8833,293.06641 274.21582,287.0166 266.31641,284.3291 C 261.99512,283.4458 251.60596,282.9917 235.09717,282.9917 L 235.09717,254.76904 L 383.87012,254.76904 C 383.87012,284.77051 383.19531,311.65625 381.9248,335.375 C 378.64258,381.51367 376.99316,406.59375 376.99316,410.61914 C 376.99316,453.61523 379.15332,485.63086 383.44238,506.6748 C 384.86133,515.63184 389.16504,521.25293 396.32227,523.47266 C 400.59473,524.81055 410.62109,525.48535 426.35449,525.48535 L 426.35449,553.10742 L 426.37012,553.10742 L 426.37012,553.10742 z "
   style="fill:#ffffff"
   id="path8390" />
		</g>
		<g
   id="Ebene_5">
			<path
   d="M 391.82031,157.104 C 391.82031,173.28223 385.70117,187.3833 373.48047,199.35645 C 361.25977,211.3291 346.15332,217.33252 328.19434,217.33252 C 309.49219,217.33252 294.03906,211.3457 281.81836,199.35645 C 269.59814,187.36621 263.47998,173.28223 263.47998,157.104 C 263.47998,141.53516 269.59814,127.74805 281.81836,115.75879 C 294.02295,103.76855 309.49219,97.766113 328.19434,97.766113 C 346.15332,97.766113 361.25977,103.76855 373.48047,115.75879 C 385.70117,127.74805 391.82031,141.51904 391.82031,157.104 z "
   style="fill:#ffffff"
   id="path4611_22_" />
		</g>
	</svg>