<?xml version="1.0" standalone="no"?>
<!DOCTYPE svg PUBLIC "-//W3C//DTD SVG 1.0//EN" "http://www.w3.org/TR/2001/REC-SVG-20010904/DTD/svg10.dtd">
<svg width="700" height="700" viewBox="0 0 700 700" xmlns="http://www.w3.org/2000/svg" xmlns:svg="http://www.w3.org/2000/svg">
<title>version of Cretan labyrinth in circular disc</title>
<g transform="translate(350,350) scale(1,-1)">
<circle cx="0" cy="0" r="340"/>
<path style="fill:none;stroke:#ffffff;stroke-width:18.34055;stroke-linecap:round;stroke-linejoin:round" d="M-120.667,-228.789
C-205.543,-184.029,-264.333,-101.083,-264.333,0
C-264.333,145.987,-146.908,266,0,266
C146.908,266,267.25,147.598,267.25,0
C267.25,-125.704,180.433,-235.509,57.042,-262.271
C54.4023,-262.86,51.7046,-263.158,49,-263.158
C28.289,-263.158,11.5,-246.368,11.5,-225.658
C11.5,-208.046,23.7613,-192.81,40.9585,-189.044
C129.954,-169.815,189.75,-89.2807,189.75,0
C189.75,104.796,102.725,186,0,186
C-102.725,186,-181,99.9631,-181,0
C-181,-88.9175,-97.2023,-156,0,-156
C86.1567,-151,151,-83.395,151,0
C151,83.395,80.6338,146,0,146
C-66.0285,146,-140.963,93.7259,-140.963,0
C-140.963,-17.9723,-132.026,-65.6811,-96.2764,-65.6811
C-73.2305,-65.6811,-63.2734,-38.9414,-63.2734,-21.8955
C-63.2734,-0.20526,-64.1632,2.66826,-63.668,5.2173
C-59.9492,40.3227,-33.1611,66,0,66
C44.306,66,68.3722,28.3974,68.3722,0
C68.3722,-15.2472,64.8795,-28.8226,55.8252,-41.0918
M-99.9545,-18.2837
C-100.997,-11.1967,-102.599,-5.4341,-102.599,0
C-102.599,67.484,-48.6997,106,0,106
C62.2662,106,109.708,58.0147,109.708,0
C109.708,-43.7169,86.1473,-90.1396,50.3545,-90.1396
C26.8086,-90.1396,14.479,-67.5195,14.479,-38.2276
C14.479,-29.7392,16.9775,-21.4385,21.6607,-14.3637
C24.4898,-10.1089,26,-5.11084,26,0
C26,14.3594,14.3594,26,0,26
C-14.3594,26,-26,14.3594,-26,0
V-225.658
C-26,-267.079,7.5791,-300.658,49,-300.658
C54.4102,-300.658,59.8042,-300.063,65.083,-298.885
C205.673,-268.357,306,-143.918,306,0
C306,168.999,168.999,306,0,306
C-168.999,306,-306,168.999,-306,0
C-306,-113.515,-243.158,-217.701,-142.752,-270.652
C-135.945,-274.245,-128.363,-276.122,-120.666,-276.122
C-94.5254,-276.122,-73.3335,-254.931,-73.3335,-228.789
C-73.3335,-211.232,-83.0528,-195.117,-98.5806,-186.925
C-167.929,-150.358,-222.667,-85.1655,-222.667,0
C-222.667,122.975,-124.816,226,0,226
C124.816,226,228.5,126.197,228.5,0
C228.5,-107.493,155.193,-202.662,49,-225.658"/>
</g>
</svg>
