<?xml version="1.0" encoding="utf-8"?>
<!-- Generator: Adobe Illustrator 14.0.0, SVG Export Plug-In . SVG Version: 6.00 Build 43363)  -->
<!DOCTYPE svg PUBLIC "-//W3C//DTD SVG 1.1//EN" "http://www.w3.org/Graphics/SVG/1.1/DTD/svg11.dtd">
<svg version="1.1" id="Layer_2" xmlns="http://www.w3.org/2000/svg" xmlns:xlink="http://www.w3.org/1999/xlink" x="0px" y="0px"
	 width="399.092px" height="864px" viewBox="0 0 399.092 864" enable-background="new 0 0 399.092 864" xml:space="preserve">
<g>
	<path fill="#513A30" d="M168.599,474.424c-0.374-6.893-0.841-13.701-1.4-20.371c-0.534-6.373-1.157-12.627-1.878-18.705
		c-12.446-23.856-39.414-29.39-65.692-29.39c-26.272,0-53.24,5.534-65.687,29.39c-0.722,6.078-1.344,12.332-1.878,18.705
		c-0.56,6.67-1.026,13.479-1.4,20.371c-4.227,77.367,2.412,165.266,4.445,189.314c0.347,4.117,0.56,6.363,0.56,6.363
		c12.618,12.623,46.328,23.855,63.96,23.855c17.633,0,51.343-11.232,63.966-23.855c0,0,0.213-2.246,0.561-6.363
		C166.187,639.689,172.826,551.791,168.599,474.424z M121.177,440.705c-3.739,5.186-10.481,8.816-17.918,3.801
		C107.843,439.927,115.068,438.979,121.177,440.705z M95.999,444.506c-7.432,5.016-14.174,1.385-17.918-3.801
		C84.195,438.979,91.419,439.927,95.999,444.506z M71.696,610.65c-0.772-1.012-0.56-1.514,0.265-1.914
		c0.004,0,0.008-0.002,0.011-0.002c15.04-4.668,22.907-5.705,27.657-5.705c4.756,0,12.623,1.037,27.663,5.705
		c0.83,0.4,1.045,0.902,0.269,1.918c-6.902,5.838-17.746,8.973-27.932,8.973C89.447,619.625,78.602,616.49,71.696,610.65z
		 M137.156,579.691c-7.79,2.334-11.508-6.482-37.527-6.482c-26.013,0-29.731,8.816-37.526,6.482
		c-7.789-2.334-7.764-21.004,2.354-31.115c9.595,9.594,23.851,18.129,35.172,18.129c11.327,0,25.578-8.535,35.178-18.129
		C144.919,558.688,144.95,577.357,137.156,579.691z"/>
	<g>
		<path fill="#DCBD7B" d="M164.155,632.85c0-3.889,1.514-16.855-8.34-13.225s-3.578-12.473,6.249-10.383
			c3.086-5.693,2.179-12.566-0.025-14.77c0-12.965,0.777-42.785-6.053-56.098c15.388-15.383,6.224-60.502-4.496-62.576
			c-10.715-2.074-22.979,6.457-38.813,22.289v0.006c3.159,1.201,6.283,2.793,9.337,4.674c0.389,0.398,0.257,0.809-0.297,1.072
			c0,0,0,0,0,0.002c-3.084,0.705-7.557,4.346-10.451,9.178l-0.005,0.006c-0.695,0.693-1.317,0.662-1.535-0.572v-0.004
			c0.529-14.844-10.098-16.943-10.098-16.943s-10.626,2.1-10.092,16.943h-0.005c-0.213,1.238-0.83,1.27-1.53,0.576l-0.005-0.006
			c-2.897-4.832-7.371-8.473-10.455-9.18l0,0c-0.555-0.264-0.687-0.672-0.298-1.072c3.056-1.879,6.18-3.471,9.342-4.674v-0.006
			c-15.833-15.832-28.098-24.363-38.817-22.289c-10.715,2.074-19.879,47.193-4.491,62.576c-6.83,13.313-6.053,43.133-6.053,56.098
			c-2.204,2.203-3.111,9.076-0.025,14.77c9.827-2.09,16.103,14.014,6.249,10.383s-8.339,9.336-8.339,13.225
			s11.969,7.779,13.784,7.779c0.644,0,2.002-0.025,3.661-0.229c-3.241,3.252-0.845,10.969,1.535,13.35v0.01
			c-8.359,0.244-14.998,4.117-18.98,9.979c0.347,4.117,0.56,6.363,0.56,6.363c12.618,12.623,46.328,23.855,63.96,23.855
			c17.633,0,51.343-11.232,63.966-23.855c0,0,0.213-2.246,0.561-6.363c-3.983-5.861-10.622-9.734-18.987-9.979v-0.01
			c2.381-2.381,4.782-10.098,1.541-13.35c1.659,0.203,3.018,0.229,3.661,0.229C152.185,640.629,164.155,636.738,164.155,632.85z
			 M99.628,530.424c5.882,0,22.539-18.525,32.263-14.781c0,13.225-9.355,31.117-32.263,31.117
			c-22.901,0-32.257-17.893-32.257-31.117C77.095,511.898,93.753,530.424,99.628,530.424z M91.641,680.209
			c0.565,1.244,0.556,2.471-0.996,2.291c-10.979-4.662-34.422-18.463-44.723-18.992c-0.001-0.002-0.001-0.004-0.002-0.004
			c-0.822-0.162-0.787-0.988-0.22-1.373C53.54,658.15,72.946,659.287,91.641,680.209z M153.557,662.129
			c0.57,0.385,0.606,1.213-0.216,1.375c-0.001,0-0.002,0.002-0.003,0.004c-10.301,0.531-33.743,14.33-44.722,18.992l0,0
			c-1.552,0.18-1.563-1.045-0.997-2.289C126.307,659.291,145.714,658.15,153.557,662.129z M145.163,607.4
			c-4.656,10.938-24.966,25.449-45.534,25.449c-20.563,0-40.877-14.516-45.539-25.453v-0.006
			c9.958-9.951,30.936-13.438,45.539-13.438c14.609,0,35.588,3.486,45.539,13.438C145.167,607.396,145.163,607.396,145.163,607.4z
			 M99.628,581.766c-29.384,0-37.106,19.738-48.646,5.965c-11.544-13.773-3.127-34.746,9.061-46.934
			c6.742,6.74,22.907,12.965,39.585,12.965c16.685,0,32.85-6.225,39.591-12.965c12.188,12.188,20.6,33.16,9.061,46.934
			C136.735,601.504,129.018,581.766,99.628,581.766z M167.199,454.053c-0.534-6.373-1.157-12.627-1.878-18.705
			c-12.446-23.856-39.414-29.39-65.692-29.39c-26.272,0-53.24,5.534-65.687,29.39c-0.722,6.078-1.344,12.332-1.878,18.705
			c-0.56,6.67-1.026,13.479-1.4,20.371c12.266-17.643,33.7-18.68,48.221-4.158c14.521,14.52,16.596,15.211,20.744,15.211
			c4.149,0,6.224-0.691,20.745-15.211c14.521-14.521,35.96-13.484,48.226,4.158C168.225,467.531,167.758,460.723,167.199,454.053z
			 M99.628,461.619c-4.612,0-20.964-20.202-46.544-22.086l0,0c-1.204-0.346-1.392-0.73-0.624-1.498
			c11.008-4.318,26.337-6.836,47.168-6.836c20.833,0,36.161,2.517,47.169,6.834l-0.001,0.002c0.769,0.768,0.581,1.152-0.623,1.498
			c0,0,0,0-0.001,0.001C120.595,441.42,104.247,461.619,99.628,461.619z"/>
		<path fill="none" stroke="#CE9C46" d="M43.448,510.457c1.297-14.002,10.725-15.559,21.698-15.559 M155.813,510.457
			c-1.297-14.002-10.725-15.559-21.698-15.559 M58.864,630.469c-1.329-3.125-2.427-6.713-3.229-10.844 M140.397,630.469
			c1.329-3.125,2.427-6.713,3.229-10.844"/>
	</g>
	<path fill="#CE9C46" d="M146.708,640.4c3.241,3.252,0.84,10.969-1.541,13.35v0.01c-12.404-0.357-28.601,7.291-45.539,28.357
		c-16.938-21.07-33.134-28.721-45.539-28.357v-0.01c-2.38-2.381-4.776-10.098-1.535-13.35l0.006-0.006
		c3.033-0.373,7.068-1.342,9.542-3.822v0.006c10.896,16.664,29.971,15.176,37.526,19.09c7.557-3.914,26.631-2.426,37.532-19.09
		c2.479,2.475,6.509,3.443,9.542,3.816L146.708,640.4z M86.585,498.088v0.006c-3.816,1.451-7.582,3.465-11.232,5.875
		c-0.006,0-0.006,0.006-0.011,0.006c-13.193,8.719-24.889,22.652-32.065,34.4c-15.388-15.383-6.224-60.502,4.491-62.576
		C58.488,473.725,70.752,482.256,86.585,498.088z M74.674,498.154l-0.001-0.006c0.641-0.084,0.61-0.525,0.157-0.979l0,0
		c-10.041-5.555-22.464-13.949-28.53-10.309c-6.269,3.76-7.454,25.93-4.704,37.018c0.22,0.219,0.37,0.215,0.587-0.002
		c0.003,0,0.005,0.002,0.008,0.002C47.529,504.373,58.737,497.59,74.674,498.154z M155.986,538.375
		c-7.177-11.748-18.872-25.682-32.07-34.4h-0.005c-3.651-2.416-7.417-4.43-11.233-5.881v-0.006
		c15.833-15.832,28.098-24.363,38.813-22.289C162.209,477.873,171.374,522.992,155.986,538.375z M157.072,523.879
		c0.002,0,0.004-0.002,0.005-0.002c0.218,0.219,0.369,0.221,0.589,0h0.001c2.746-11.088,1.564-33.256-4.704-37.016
		c-6.066-3.641-18.493,4.756-28.534,10.311c-0.451,0.453-0.48,0.893,0.159,0.977l-0.001,0.006
		C140.525,497.588,151.733,504.371,157.072,523.879z"/>
</g>
</svg>
