<?xml version="1.0" encoding="utf-8"?>
<!-- Generator: Adobe Illustrator 16.0.0, SVG Export Plug-In . SVG Version: 6.00 Build 0)  -->
<!DOCTYPE svg PUBLIC "-//W3C//DTD SVG 1.1//EN" "http://www.w3.org/Graphics/SVG/1.1/DTD/svg11.dtd">
<svg version="1.1" id="Layer_1" xmlns="http://www.w3.org/2000/svg" xmlns:xlink="http://www.w3.org/1999/xlink" x="0px" y="0px"
	 width="612px" height="792px" viewBox="0 0 612 792" enable-background="new 0 0 612 792" xml:space="preserve">
<path fill="#FFFFFF" stroke="#000000" stroke-miterlimit="10" d="M332.045,216.203c44.943,69.663,148.314-31.46,94.382,86.517
	c-18.545,40.567-94.101-36.517-94.101,1.966s79.775,25.562,79.775,79.775s1.404,119.943-76.686,119.943
	c-40.323,0-180.899,21.911-237.079-108.404c70.822,10.624,90.045,14.786,101.124,0c16.854-22.494-34.831-78.674-34.831-78.674
	s111.465,72.186,135.955-22.472c9.006-34.809-60.85-14.642-67.696-53.652C220.809,172.382,312.993,186.672,332.045,216.203z"/>
</svg>
