<?xml version="1.0" standalone="no"?>
<!DOCTYPE svg PUBLIC "-//W3C//DTD SVG 1.0//EN" "http://www.w3.org/TR/2001/REC-SVG-20010904/DTD/svg10.dtd">
<svg width="528" height="513" viewBox="0 0 352 342" xmlns:svg="http://www.w3.org/2000/svg" xmlns="http://www.w3.org/2000/svg">
<title>Triquetra symbol interlaced with circle (ribbons or pseudo-Celtic knotwork)</title>
<g transform="translate(-124,739.7) scale(0.1,-0.1)" fill="none" stroke="#000000" stroke-width="336">
<path fill="#ffffff" stroke="none" d="M4559.8,4481.5
C4456.01,5193.68,3795.63,5808.51,3000,5808.51
C2204.37,5808.51,1543.99,5193.69,1440.2,4481.5
C1599.7,4462.61,1826.28,4410.49,2055.86,4410.49
C2893.48,4410.49,3572.52,5089.52,3572.52,5927.15
C3572.52,6430.48,3322.81,6901.02,3000,7183.15
C2677.19,6901.02,2427.48,6430.48,2427.48,5927.15
C2427.48,5089.52,3106.51,4410.49,3944.14,4410.49
C4173.72,4410.49,4400.3,4462.61,4559.8,4481.5Z"/>
<circle fill="#ffffff" cx="3000" cy="5382.05" r="1164"/>
<circle stroke="#ffffff" stroke-width="168" cx="3000" cy="5382.05" r="1164"/>
<path d="M4512.79,4400.08
C4456.01,5193.68,3795.63,5808.51,3000,5808.51
C2204.37,5808.51,1543.99,5193.69,1487.21,4400.09
M1393.2,4562.92
C1599.7,4462.61,1826.28,4410.49,2055.86,4410.49
C2893.48,4410.49,3572.52,5089.52,3572.52,5927.15
C3572.52,6430.48,3322.81,6901.02,2905.99,7183.15
M3094.01,7183.15
C2677.19,6901.02,2427.48,6430.48,2427.48,5927.15
C2427.48,5089.52,3106.51,4410.49,3944.14,4410.49
C4173.72,4410.49,4400.3,4462.61,4606.81,4562.92"/>
<path stroke="#ffffff" stroke-width="168" d="M4507.93,4454.3
C4424.95,5224.59,3774.75,5808.51,3000,5808.51
C2225.26,5808.51,1575.06,5224.6,1492.07,4454.31
M1442.59,4540.01
C1635.76,4454.61,1844.65,4410.49,2055.86,4410.49
C2893.48,4410.49,3572.52,5089.52,3572.52,5927.15
C3572.52,6411.25,3341.42,6866.27,2950.52,7151.83
M3049.49,7151.83
C2658.58,6866.27,2427.48,6411.25,2427.48,5927.15
C2427.48,5089.52,3106.51,4410.49,3944.14,4410.49
C4155.36,4410.49,4364.24,4454.61,4557.42,4540.02"/>
<path d="M2581.95,5749.76
C2488.58,5722.98,2398,5687.3,2311.45,5643.2
M3527.47,5560.24
C3550.96,5654.49,3565.35,5750.78,3570.44,5847.78
M2890.58,4836.16
C2960.45,4768.68,3036.65,4708.08,3118.11,4655.17
M3778.87,6247.07
C3616.77,6393.02,3416.93,6490.49,3202.13,6528.37
M1861.44,5624.06
C1844.53,5544.5,1836,5463.39,1836,5382.05
C1836,5246.27,1859.76,5111.53,1906.2,4983.94
M3359.7,4275.02
C3567.14,4342.42,3751.47,4466.76,3891.68,4633.85"/>
<path stroke="#ffffff" stroke-width="168" d="M2607.46,5756.83
C2496.54,5727.11,2389.36,5684.89,2287.97,5630.98
M3520.84,5534.61
C3550.56,5645.53,3567.59,5759.46,3571.59,5874.22
M2871.7,4854.71
C2952.9,4773.52,3043.05,4701.8,3140.44,4640.95
M3808.58,6219.36
C3631.76,6390.12,3405.42,6500.51,3162,6534.72
M1870.58,5663.65
C1847.61,5571.54,1836,5476.98,1836,5382.05
C1836,5232.61,1864.78,5084.57,1920.76,4946.01
M3320.84,4263.14
C3557.13,4330.9,3765.91,4471.72,3917.24,4665.42"/>
</g>
</svg>
